# File created by Blade
# Date/Time:  Tue Apr 07 20:17:56 2015
# Frame Rate: 120.000 fps
#------------------------------------------------------
:FULLY-SPECIFIED
:DEGREES
599
root 4.346140 34.556621 -9.168669 13.032857 -17.717875 -53.481878
Spine 9.168175 17.716572 43.067042
Head 3.873968 -2.016650 16.313587
LeftShoulder -19.181897 39.308105 13.951707
LeftArm 53.950183 -41.541129 -81.478556
LeftForeArm 0.428048 0.000000 17.021953
LeftHand 11.789876 -0.000000 4.913130
LeftHandThumb1 -26.253704 0.000000 33.147579
RightShoulder -9.447513 35.300562 -26.147919
RightArm 59.955968 70.920744 98.090747
RightForeArm 50.750541 -0.000000 62.868979
RightHand 3.535543 -0.000000 19.645796
RightHandThumb1 -24.326973 -0.000000 -32.862282
LeftUpLeg -3.395328 4.103656 47.004032
LeftLeg 23.314502 -0.000000 -0.000000
LeftFoot -19.138422 22.231657 -22.074458
LeftToeBase -6.554867 -0.000000 0.000000
RightUpLeg -143.710670 -46.078388 42.374439
RightLeg -5.200564 -0.000000 0.000000
RightFoot 29.503795 0.728820 -1.448473
RightToeBase 61.143428 -0.000000 -0.000000
600
root 4.369855 34.561372 -9.166257 13.051840 -17.669566 -53.526638
Spine 9.086982 17.650088 43.109351
Head 3.952346 -2.051807 16.128116
LeftShoulder -19.192886 39.334581 13.898628
LeftArm 53.930285 -41.432974 -81.593146
LeftForeArm 0.451316 -0.000000 16.883486
LeftHand 11.747574 -0.000000 4.904322
LeftHandThumb1 -26.253704 0.000000 33.147579
RightShoulder -9.415836 35.258166 -26.137733
RightArm 59.856224 70.889380 97.980397
RightForeArm 50.922421 -0.000000 62.748606
RightHand 3.527326 -0.000000 19.712350
RightHandThumb1 -24.326973 -0.000000 -32.862282
LeftUpLeg -3.500951 4.162051 47.072238
LeftLeg 23.476938 -0.000000 -0.000000
LeftFoot -19.049036 21.847306 -22.296790
LeftToeBase -6.698558 -0.000000 0.000000
RightUpLeg -143.721875 -46.158525 42.456582
RightLeg -5.234923 -0.000000 0.000000
RightFoot 29.549648 0.315673 -1.295067
RightToeBase 61.416184 -0.000000 -0.000000
601
root 4.397613 34.565299 -9.168907 13.113677 -17.653698 -53.559683
Spine 8.995065 17.643537 43.140870
Head 4.055541 -2.066561 15.901009
LeftShoulder -19.247508 39.423116 13.819958
LeftArm 54.029557 -41.291797 -81.776408
LeftForeArm 0.478319 -0.000000 16.675610
LeftHand 11.841768 -0.000000 4.825273
LeftHandThumb1 -26.253704 0.000000 33.147579
RightShoulder -9.365564 35.292436 -26.121521
RightArm 59.534630 70.903494 97.650215
RightForeArm 51.091321 -0.000000 62.577538
RightHand 3.540276 0.000000 19.698960
RightHandThumb1 -24.326973 -0.000000 -32.862282
LeftUpLeg -3.636758 4.247481 47.129900
LeftLeg 23.677150 -0.000000 -0.000000
LeftFoot -18.957178 21.366787 -22.593510
LeftToeBase -6.824419 -0.000000 0.000000
RightUpLeg -143.675727 -46.207249 42.490023
RightLeg -5.243895 -0.000000 0.000000
RightFoot 29.708625 0.041529 -1.415922
RightToeBase 60.742056 -0.000000 -0.000000
602
root 4.428435 34.570283 -9.171894 13.146949 -17.633562 -53.558291
Spine 8.920735 17.636887 43.151660
Head 4.152300 -2.104055 15.666926
LeftShoulder -19.268700 39.476786 13.786507
LeftArm 54.074594 -41.156876 -81.974338
LeftForeArm 0.578125 -0.000000 16.506819
LeftHand 11.822640 -0.000000 4.711468
LeftHandThumb1 -26.253704 0.000000 33.147579
RightShoulder -9.323049 35.293824 -26.096035
RightArm 59.174014 70.930054 97.274910
RightForeArm 51.295763 -0.000000 62.375784
RightHand 3.560692 -0.000000 19.724612
RightHandThumb1 -24.326973 -0.000000 -32.862282
LeftUpLeg -3.798261 4.316083 47.170476
LeftLeg 23.952815 -0.000000 -0.000000
LeftFoot -18.810632 20.780061 -22.856118
LeftToeBase -6.782059 -0.000000 0.000000
RightUpLeg -143.629169 -46.242111 42.522875
RightLeg -5.259669 -0.000000 0.000000
RightFoot 29.858002 -0.291625 -1.430775
RightToeBase 60.656033 -0.000000 -0.000000
603
root 4.461660 34.576344 -9.177879 13.174214 -17.631395 -53.517135
Spine 8.863895 17.622752 43.105599
Head 4.233491 -2.079324 15.493097
LeftShoulder -19.370914 39.511879 13.701783
LeftArm 54.121984 -41.026568 -82.175724
LeftForeArm 0.749903 0.000000 16.407581
LeftHand 11.753191 -0.000000 4.489728
LeftHandThumb1 -26.253704 0.000000 33.147579
RightShoulder -9.221334 35.297807 -26.010143
RightArm 58.822773 71.015564 96.901135
RightForeArm 51.480666 -0.000000 62.194668
RightHand 3.647127 -0.000000 19.583259
RightHandThumb1 -24.326973 -0.000000 -32.862282
LeftUpLeg -3.978614 4.341703 47.186991
LeftLeg 24.291974 -0.000000 -0.000000
LeftFoot -18.663244 20.011710 -23.277026
LeftToeBase -6.613965 -0.000000 0.000000
RightUpLeg -143.575953 -46.271404 42.513322
RightLeg -5.228665 -0.000000 0.000000
RightFoot 30.017104 -0.672822 -1.272536
RightToeBase 60.283904 -0.000000 -0.000000
604
root 4.496577 34.581503 -9.186579 13.178973 -17.686593 -53.411093
Spine 8.862969 17.691101 42.990065
Head 4.265753 -2.112741 15.340379
LeftShoulder -19.355043 39.467510 13.736064
LeftArm 54.017246 -40.921596 -82.335409
LeftForeArm 0.963569 -0.000000 16.358513
LeftHand 11.721602 0.000000 4.349455
LeftHandThumb1 -26.253704 0.000000 33.147579
RightShoulder -9.139020 35.296928 -25.920470
RightArm 58.331694 71.161981 96.397123
RightForeArm 51.646232 -0.000000 62.055178
RightHand 3.749552 0.000000 19.545311
RightHandThumb1 -24.326973 -0.000000 -32.862282
LeftUpLeg -4.158197 4.361615 47.152120
LeftLeg 24.708211 -0.000000 -0.000000
LeftFoot -18.451367 19.093940 -23.747255
LeftToeBase -6.560985 -0.000000 0.000000
RightUpLeg -143.495091 -46.225888 42.428566
RightLeg -5.211207 -0.000000 0.000000
RightFoot 30.220679 -1.071751 -1.099587
RightToeBase 60.315747 -0.000000 -0.000000
605
root 4.531053 34.587724 -9.201808 13.198179 -17.806803 -53.260800
Spine 8.899350 17.817620 42.792426
Head 4.250591 -2.097992 15.237976
LeftShoulder -19.405379 39.461670 13.731241
LeftArm 54.040922 -40.881519 -82.640767
LeftForeArm 1.340389 -0.000000 16.361013
LeftHand 11.757956 -0.000000 4.209305
LeftHandThumb1 -26.253704 0.000000 33.147579
RightShoulder -9.046181 35.220337 -25.778328
RightArm 58.178816 71.321678 96.234427
RightForeArm 51.721997 -0.000000 61.922395
RightHand 3.735838 -0.000000 19.539540
RightHandThumb1 -24.326973 -0.000000 -32.862282
LeftUpLeg -4.376568 4.439902 47.117040
LeftLeg 25.300648 -0.000000 -0.000000
LeftFoot -18.136436 17.819557 -24.325904
LeftToeBase -6.662164 -0.000000 0.000000
RightUpLeg -143.363595 -46.095898 42.259207
RightLeg -5.186327 -0.000000 0.000000
RightFoot 30.442615 -1.390111 -1.010019
RightToeBase 60.105823 -0.000000 -0.000000
606
root 4.566804 34.593050 -9.221667 13.210190 -17.972959 -53.057587
Spine 8.981257 17.993979 42.538424
Head 4.177095 -2.164861 15.125661
LeftShoulder -19.429679 39.434305 13.729981
LeftArm 54.003158 -40.904493 -82.926273
LeftForeArm 1.718023 0.000000 16.452000
LeftHand 11.743586 0.000000 3.913216
LeftHandThumb1 -26.253704 0.000000 33.147579
RightShoulder -8.986198 35.034158 -25.635443
RightArm 58.351879 71.449770 96.400687
RightForeArm 51.854287 -0.000000 61.784265
RightHand 3.754069 -0.000000 19.644381
RightHandThumb1 -24.326973 -0.000000 -32.862282
LeftUpLeg -4.636366 4.481338 47.073756
LeftLeg 26.035154 -0.000000 -0.000000
LeftFoot -17.663031 16.301430 -25.064997
LeftToeBase -7.478286 -0.000000 0.000000
RightUpLeg -143.194410 -45.909054 42.019533
RightLeg -5.183691 -0.000000 0.000000
RightFoot 30.671960 -1.643532 -0.858474
RightToeBase 59.735997 -0.000000 -0.000000
607
root 4.601396 34.598095 -9.244212 13.195601 -18.152360 -52.800530
Spine 9.087473 18.168364 42.221191
Head 4.091653 -2.255072 14.995028
LeftShoulder -19.465866 39.441077 13.723947
LeftArm 54.000575 -40.964841 -83.249088
LeftForeArm 2.082832 -0.000000 16.533956
LeftHand 11.818586 0.000000 3.789345
LeftHandThumb1 -26.253704 0.000000 33.147579
RightShoulder -8.928934 34.876916 -25.464344
RightArm 58.495757 71.559781 96.532940
RightForeArm 52.094586 -0.000000 61.670147
RightHand 3.775956 -0.000000 19.685391
RightHandThumb1 -24.326973 -0.000000 -32.862282
LeftUpLeg -4.935184 4.497887 47.041346
LeftLeg 26.841194 -0.000000 -0.000000
LeftFoot -17.080446 14.575092 -25.819655
LeftToeBase -8.026229 -0.000000 0.000000
RightUpLeg -142.999696 -45.718564 41.717474
RightLeg -5.220756 -0.000000 0.000000
RightFoot 30.961889 -1.866871 -0.651451
RightToeBase 59.301354 -0.000000 -0.000000
608
root 4.637147 34.604708 -9.279476 13.233091 -18.357254 -52.544434
Spine 9.207592 18.416455 41.894417
Head 3.954492 -2.384914 14.826133
LeftShoulder -19.519210 39.485968 13.688073
LeftArm 54.025446 -41.030702 -83.550410
LeftForeArm 2.333328 -0.000000 16.634291
LeftHand 11.888858 -0.000000 3.655317
LeftHandThumb1 -26.253704 0.000000 33.147579
RightShoulder -8.903407 34.747816 -25.328987
RightArm 58.605560 71.669282 96.648531
RightForeArm 52.391927 0.000000 61.531749
RightHand 3.781795 -0.000000 19.726884
RightHandThumb1 -24.326973 -0.000000 -32.862282
LeftUpLeg -5.270991 4.533911 47.060209
LeftLeg 27.630824 -0.000000 -0.000000
LeftFoot -16.366477 12.635810 -26.693050
LeftToeBase -8.519595 -0.000000 0.000000
RightUpLeg -142.847247 -45.419218 41.458407
RightLeg -5.245042 -0.000000 0.000000
RightFoot 31.231746 -1.981563 -0.433826
RightToeBase 59.070257 -0.000000 -0.000000
609
root 4.671375 34.613388 -9.312160 13.235677 -18.525313 -52.314785
Spine 9.340411 18.625224 41.627043
Head 3.837085 -2.506199 14.579588
LeftShoulder -19.563175 39.570044 13.657158
LeftArm 54.051520 -41.095593 -83.837177
LeftForeArm 2.533261 -0.000000 16.689678
LeftHand 11.889343 0.000000 3.681893
LeftHandThumb1 -26.253704 0.000000 33.147579
RightShoulder -8.905833 34.648062 -25.230462
RightArm 58.639273 71.749308 96.704185
RightForeArm 52.736245 0.000000 61.388921
RightHand 3.792704 0.000000 19.770830
RightHandThumb1 -24.326973 -0.000000 -32.862282
LeftUpLeg -5.535929 4.453198 47.158489
LeftLeg 28.331535 -0.000000 -0.000000
LeftFoot -15.617512 10.537306 -27.763968
LeftToeBase -9.078572 -0.000000 0.000000
RightUpLeg -142.654433 -45.183011 41.216728
RightLeg -5.309525 -0.000000 0.000000
RightFoot 31.480859 -2.230186 -0.087153
RightToeBase 58.742352 -0.000000 -0.000000
610
root 4.722330 34.609981 -9.343151 13.258247 -18.695813 -51.933436
Spine 9.396388 18.810022 41.239686
Head 3.766315 -2.577950 14.216493
LeftShoulder -19.640058 39.634841 13.593979
LeftArm 53.958113 -41.145492 -84.035970
LeftForeArm 2.655626 -0.000000 16.709822
LeftHand 11.906236 -0.000000 3.873805
LeftHandThumb1 -26.253704 0.000000 33.147579
RightShoulder -8.867111 34.651061 -25.151190
RightArm 58.445497 71.817065 96.525581
RightForeArm 53.073012 -0.000000 61.260355
RightHand 3.765034 0.000000 19.686539
RightHandThumb1 -24.326973 -0.000000 -32.862282
LeftUpLeg -5.800629 4.246333 47.052642
LeftLeg 28.898438 -0.000000 -0.000000
LeftFoot -14.922412 8.511260 -28.789536
LeftToeBase -9.774782 -0.000000 0.000000
RightUpLeg -143.874612 -43.427169 41.993514
RightLeg -4.405990 -0.000000 0.000000
RightFoot 31.687693 -2.908886 0.115262
RightToeBase 58.990892 -0.000000 -0.000000
